<svg xmlns="http://www.w3.org/2000/svg" viewBox="0 0 512 512" width="100%" height="100%">
  <defs>
    <linearGradient id="bgGradient" x1="0%" y1="0%" x2="100%" y2="100%">
      <stop offset="0%" stop-color="#2563EB" />
      <stop offset="100%" stop-color="#10B981" />
    </linearGradient>
  </defs>
  
  <rect width="512" height="512" rx="115" ry="115" fill="url(#bgGradient)" />
  
  <path d="M 110 300 Q 110 270 145 270 L 185 200 Q 205 160 260 160 L 340 160 Q 380 160 410 220 L 440 230 Q 465 240 465 290 L 465 330 L 430 330 A 40 40 0 0 1 350 330 L 210 330 A 40 40 0 0 1 130 330 L 110 330 Z" fill="#FFFFFF" />
  
  <circle cx="170" cy="330" r="18" fill="#FFFFFF" />
  <circle cx="390" cy="330" r="18" fill="#FFFFFF" />

  <path d="M 300 100 L 190 260 L 260 260 L 230 400 L 360 220 L 290 220 Z" fill="#FDE047" />
</svg>
